<svg width="467" height="270" viewBox="0 0 467 270" fill="none" xmlns="http://www.w3.org/2000/svg">
<path d="M6.42117 71C5.76003 71 5.16501 70.7686 4.6361 70.3058C4.17331 69.7769 3.94191 69.1819 3.94191 68.5207V4.06014C3.94191 3.33289 4.17331 2.73787 4.6361 2.27507C5.16501 1.81228 5.76003 1.58088 6.42117 1.58088H17.1315C18.7183 1.58088 19.8753 2.30813 20.6025 3.76262L38.0565 35.0012L55.5104 3.76262C56.2376 2.30813 57.3946 1.58088 58.9814 1.58088H69.5926C70.3198 1.58088 70.9148 1.81228 71.3776 2.27507C71.9065 2.73787 72.171 3.33289 72.171 4.06014V68.5207C72.171 69.248 71.9065 69.843 71.3776 70.3058C70.9148 70.7686 70.3198 71 69.5926 71H57.7913C57.0641 71 56.436 70.7686 55.9071 70.3058C55.4443 69.843 55.2129 69.248 55.2129 68.5207V31.3319L44.1058 52.0585C43.2464 53.5791 42.0894 54.3394 40.6349 54.3394H35.478C34.6186 54.3394 33.9244 54.1411 33.3955 53.7444C32.8665 53.3477 32.4038 52.7857 32.0071 52.0585L20.8008 31.3319V68.5207C20.8008 69.1819 20.5694 69.7769 20.1066 70.3058C19.6439 70.7686 19.0488 71 18.3216 71H6.42117ZM114.43 71.9917C105.108 71.9917 97.7693 69.7108 92.4141 65.149C87.0589 60.5871 84.216 53.8766 83.8855 45.0174C83.8193 43.1001 83.7863 40.2572 83.7863 36.4888C83.7863 32.6542 83.8193 29.7783 83.8855 27.861C84.216 19.134 87.092 12.4235 92.5133 7.72943C98.0007 2.96926 105.306 0.589178 114.43 0.589178C123.554 0.589178 130.859 2.96926 136.346 7.72943C141.834 12.4235 144.71 19.134 144.974 27.861C145.107 31.6956 145.173 34.5715 145.173 36.4888C145.173 38.34 145.107 41.1828 144.974 45.0174C144.644 53.8766 141.801 60.5871 136.446 65.149C131.09 69.7108 123.752 71.9917 114.43 71.9917ZM114.43 57.7112C118.066 57.7112 120.942 56.6203 123.058 54.4386C125.239 52.2568 126.396 48.9181 126.529 44.4224C126.661 40.5878 126.727 37.8772 126.727 36.2904C126.727 34.5715 126.661 31.8608 126.529 28.1585C126.396 23.6628 125.239 20.324 123.058 18.1423C120.876 15.9606 118 14.8697 114.43 14.8697C110.86 14.8697 107.984 15.9606 105.802 18.1423C103.686 20.324 102.529 23.6628 102.331 28.1585C102.265 30.0097 102.232 32.7203 102.232 36.2904C102.232 39.7945 102.265 42.5051 102.331 44.4224C102.529 48.9181 103.686 52.2568 105.802 54.4386C107.918 56.6203 110.794 57.7112 114.43 57.7112ZM174.274 71C172.159 71 170.803 70.0083 170.208 68.0249L149.978 4.55599L149.779 3.66346C149.779 3.13455 149.978 2.67175 150.374 2.27507C150.837 1.81228 151.366 1.58088 151.961 1.58088H164.258C165.184 1.58088 165.944 1.84533 166.539 2.37424C167.2 2.90315 167.63 3.49817 167.828 4.15931L181.911 49.9759L195.894 4.15931C196.092 3.49817 196.489 2.90315 197.084 2.37424C197.745 1.84533 198.538 1.58088 199.464 1.58088H211.86C212.389 1.58088 212.852 1.81228 213.248 2.27507C213.711 2.67175 213.942 3.13455 213.942 3.66346L213.744 4.55599L193.513 68.0249C192.918 70.0083 191.563 71 189.447 71H174.274ZM225.68 71C225.019 71 224.424 70.7686 223.895 70.3058C223.432 69.7769 223.201 69.1819 223.201 68.5207V4.06014C223.201 3.33289 223.432 2.73787 223.895 2.27507C224.424 1.81228 225.019 1.58088 225.68 1.58088H271.993C272.72 1.58088 273.315 1.81228 273.778 2.27507C274.241 2.73787 274.472 3.33289 274.472 4.06014V13.3821C274.472 14.0433 274.241 14.6383 273.778 15.1672C273.315 15.63 272.72 15.8614 271.993 15.8614H240.357V29.2494H269.811C270.538 29.2494 271.133 29.5138 271.596 30.0427C272.059 30.5055 272.29 31.1005 272.29 31.8278V40.4556C272.29 41.1167 272.059 41.7117 271.596 42.2406C271.133 42.7034 270.538 42.9348 269.811 42.9348H240.357V56.7195H272.786C273.513 56.7195 274.108 56.9509 274.571 57.4137C275.034 57.8765 275.265 58.4715 275.265 59.1987V68.5207C275.265 69.1819 275.034 69.7769 274.571 70.3058C274.108 70.7686 273.513 71 272.786 71H225.68ZM15.049 170C13.925 170 13.0325 169.702 12.3714 169.107C11.7102 168.446 11.3136 167.653 11.1813 166.727L0.371786 103.358C0.305672 103.159 0.272615 102.928 0.272615 102.663C0.272615 102.135 0.470956 101.672 0.867637 101.275C1.33043 100.812 1.82628 100.581 2.35519 100.581H14.6523C16.5035 100.581 17.5282 101.308 17.7266 102.763L24.1726 141.439L31.3129 118.63C32.0401 116.845 33.131 115.952 34.5855 115.952H41.7257C43.3786 115.952 44.4695 116.845 44.9984 118.63L52.1386 141.439L58.5847 102.763C58.783 101.308 59.8078 100.581 61.6589 100.581H73.9561C74.5511 100.581 75.0469 100.812 75.4436 101.275C75.9064 101.672 76.1378 102.135 76.1378 102.663L76.0386 103.358L65.2291 166.727C65.0969 167.653 64.6671 168.446 63.9399 169.107C63.2787 169.702 62.4193 170 61.3614 170H51.9403C50.8825 170 50.056 169.736 49.461 169.207C48.866 168.678 48.4363 168.083 48.1718 167.422L38.1556 139.059L28.1394 167.422C27.5444 169.141 26.3213 170 24.4701 170H15.049ZM88.837 170C88.1759 170 87.5808 169.769 87.0519 169.306C86.5891 168.777 86.3577 168.182 86.3577 167.521V103.06C86.3577 102.333 86.5891 101.738 87.0519 101.275C87.5808 100.812 88.1759 100.581 88.837 100.581H102.126C102.853 100.581 103.448 100.812 103.911 101.275C104.44 101.738 104.704 102.333 104.704 103.06V167.521C104.704 168.248 104.44 168.843 103.911 169.306C103.448 169.769 102.853 170 102.126 170H88.837ZM136.262 170C135.601 170 135.006 169.769 134.477 169.306C134.014 168.777 133.783 168.182 133.783 167.521V116.151H116.13C115.469 116.151 114.874 115.919 114.345 115.456C113.883 114.927 113.651 114.332 113.651 113.671V103.06C113.651 102.333 113.883 101.738 114.345 101.275C114.874 100.812 115.469 100.581 116.13 100.581H169.484C170.211 100.581 170.806 100.812 171.269 101.275C171.732 101.738 171.963 102.333 171.963 103.06V113.671C171.963 114.399 171.732 114.994 171.269 115.456C170.806 115.919 170.211 116.151 169.484 116.151H151.832V167.521C151.832 168.182 151.6 168.777 151.138 169.306C150.675 169.769 150.08 170 149.352 170H136.262ZM183.455 170C182.728 170 182.133 169.769 181.67 169.306C181.208 168.843 180.976 168.248 180.976 167.521V103.06C180.976 102.333 181.208 101.738 181.67 101.275C182.199 100.812 182.794 100.581 183.455 100.581H196.248C196.976 100.581 197.571 100.812 198.033 101.275C198.562 101.738 198.827 102.333 198.827 103.06V126.96H223.223V103.06C223.223 102.333 223.454 101.738 223.917 101.275C224.38 100.812 224.975 100.581 225.702 100.581H238.495C239.222 100.581 239.817 100.812 240.28 101.275C240.743 101.738 240.974 102.333 240.974 103.06V167.521C240.974 168.248 240.743 168.843 240.28 169.306C239.817 169.769 239.222 170 238.495 170H225.702C224.975 170 224.38 169.769 223.917 169.306C223.454 168.843 223.223 168.248 223.223 167.521V142.827H198.827V167.521C198.827 168.248 198.562 168.843 198.033 169.306C197.571 169.769 196.976 170 196.248 170H183.455ZM291.409 170C290.748 170 290.153 169.769 289.624 169.306C289.161 168.777 288.93 168.182 288.93 167.521V116.151H271.278C270.616 116.151 270.021 115.919 269.492 115.456C269.03 114.927 268.798 114.332 268.798 113.671V103.06C268.798 102.333 269.03 101.738 269.492 101.275C270.021 100.812 270.616 100.581 271.278 100.581H324.631C325.358 100.581 325.953 100.812 326.416 101.275C326.879 101.738 327.11 102.333 327.11 103.06V113.671C327.11 114.399 326.879 114.994 326.416 115.456C325.953 115.919 325.358 116.151 324.631 116.151H306.979V167.521C306.979 168.182 306.747 168.777 306.285 169.306C305.822 169.769 305.227 170 304.5 170H291.409ZM338.603 170C337.875 170 337.28 169.769 336.817 169.306C336.355 168.843 336.123 168.248 336.123 167.521V103.06C336.123 102.333 336.355 101.738 336.817 101.275C337.346 100.812 337.941 100.581 338.603 100.581H351.395C352.123 100.581 352.718 100.812 353.181 101.275C353.709 101.738 353.974 102.333 353.974 103.06V126.96H378.37V103.06C378.37 102.333 378.601 101.738 379.064 101.275C379.527 100.812 380.122 100.581 380.849 100.581H393.642C394.369 100.581 394.964 100.812 395.427 101.275C395.89 101.738 396.121 102.333 396.121 103.06V167.521C396.121 168.248 395.89 168.843 395.427 169.306C394.964 169.769 394.369 170 393.642 170H380.849C380.122 170 379.527 169.769 379.064 169.306C378.601 168.843 378.37 168.248 378.37 167.521V142.827H353.974V167.521C353.974 168.248 353.709 168.843 353.181 169.306C352.718 169.769 352.123 170 351.395 170H338.603ZM412.496 170C411.835 170 411.24 169.769 410.711 169.306C410.248 168.777 410.017 168.182 410.017 167.521V103.06C410.017 102.333 410.248 101.738 410.711 101.275C411.24 100.812 411.835 100.581 412.496 100.581H458.808C459.536 100.581 460.131 100.812 460.593 101.275C461.056 101.738 461.288 102.333 461.288 103.06V112.382C461.288 113.043 461.056 113.638 460.593 114.167C460.131 114.63 459.536 114.861 458.808 114.861H427.173V128.249H456.627C457.354 128.249 457.949 128.514 458.412 129.043C458.874 129.506 459.106 130.101 459.106 130.828V139.456C459.106 140.117 458.874 140.712 458.412 141.241C457.949 141.703 457.354 141.935 456.627 141.935H427.173V155.719H459.602C460.329 155.719 460.924 155.951 461.387 156.414C461.85 156.876 462.081 157.472 462.081 158.199V167.521C462.081 168.182 461.85 168.777 461.387 169.306C460.924 169.769 460.329 170 459.602 170H412.496ZM6.42117 269C5.76003 269 5.16501 268.769 4.6361 268.306C4.17331 267.777 3.94191 267.182 3.94191 266.521V202.06C3.94191 201.333 4.17331 200.738 4.6361 200.275C5.16501 199.812 5.76003 199.581 6.42117 199.581H17.1315C18.7183 199.581 19.8753 200.308 20.6025 201.763L38.0565 233.001L55.5104 201.763C56.2376 200.308 57.3946 199.581 58.9814 199.581H69.5926C70.3198 199.581 70.9148 199.812 71.3776 200.275C71.9065 200.738 72.171 201.333 72.171 202.06V266.521C72.171 267.248 71.9065 267.843 71.3776 268.306C70.9148 268.769 70.3198 269 69.5926 269H57.7913C57.0641 269 56.436 268.769 55.9071 268.306C55.4443 267.843 55.2129 267.248 55.2129 266.521V229.332L44.1058 250.058C43.2464 251.579 42.0894 252.339 40.6349 252.339H35.478C34.6186 252.339 33.9244 252.141 33.3955 251.744C32.8665 251.348 32.4038 250.786 32.0071 250.058L20.8008 229.332V266.521C20.8008 267.182 20.5694 267.777 20.1066 268.306C19.6439 268.769 19.0488 269 18.3216 269H6.42117ZM115.223 269.992C105.901 269.992 98.5957 267.711 93.3066 263.149C88.0837 258.587 85.4722 251.711 85.4722 242.522V202.06C85.4722 201.333 85.7036 200.738 86.1664 200.275C86.6953 199.812 87.2903 199.581 87.9514 199.581H100.744C101.472 199.581 102.067 199.812 102.529 200.275C103.058 200.738 103.323 201.333 103.323 202.06V242.422C103.323 246.72 104.315 249.959 106.298 252.141C108.347 254.257 111.289 255.315 115.124 255.315C118.893 255.315 121.802 254.224 123.851 252.042C125.901 249.86 126.925 246.654 126.925 242.422V202.06C126.925 201.333 127.157 200.738 127.62 200.275C128.148 199.812 128.743 199.581 129.405 199.581H142.297C143.024 199.581 143.619 199.812 144.082 200.275C144.545 200.738 144.776 201.333 144.776 202.06V242.522C144.776 251.711 142.131 258.587 136.842 263.149C131.619 267.711 124.413 269.992 115.223 269.992ZM183.81 269.992C177.529 269.992 172.141 269.066 167.646 267.215C163.15 265.364 159.745 262.951 157.431 259.976C155.183 256.934 153.993 253.629 153.861 250.058C153.861 249.53 154.059 249.067 154.456 248.67C154.919 248.207 155.448 247.976 156.043 247.976H168.538C169.331 247.976 169.959 248.141 170.422 248.472C170.951 248.736 171.48 249.166 172.009 249.761C172.868 251.48 174.257 252.901 176.174 254.025C178.091 255.149 180.637 255.711 183.81 255.711C187.579 255.711 190.455 255.116 192.438 253.926C194.421 252.736 195.413 251.116 195.413 249.067C195.413 247.612 194.884 246.422 193.826 245.497C192.835 244.571 191.248 243.745 189.066 243.017C186.885 242.29 183.645 241.464 179.348 240.538C171.414 238.885 165.464 236.472 161.497 233.299C157.596 230.059 155.646 225.464 155.646 219.514C155.646 215.481 156.77 211.878 159.018 208.705C161.266 205.531 164.472 203.052 168.637 201.267C172.802 199.482 177.662 198.589 183.215 198.589C188.967 198.589 193.959 199.581 198.19 201.564C202.421 203.548 205.628 206.06 207.809 209.101C210.057 212.076 211.247 215.018 211.38 217.927C211.38 218.522 211.181 219.018 210.785 219.415C210.388 219.812 209.892 220.01 209.297 220.01H196.207C195.413 220.01 194.752 219.878 194.223 219.613C193.76 219.349 193.331 218.919 192.934 218.324C192.537 216.803 191.446 215.514 189.661 214.456C187.942 213.399 185.794 212.87 183.215 212.87C180.24 212.87 177.959 213.399 176.372 214.456C174.786 215.514 173.992 217.068 173.992 219.117C173.992 220.506 174.422 221.663 175.282 222.588C176.207 223.514 177.662 224.373 179.645 225.167C181.695 225.894 184.604 226.654 188.372 227.448C194.521 228.572 199.413 229.993 203.049 231.712C206.752 233.365 209.462 235.547 211.181 238.257C212.9 240.902 213.76 244.241 213.76 248.273C213.76 252.703 212.47 256.571 209.892 259.876C207.38 263.116 203.843 265.628 199.281 267.413C194.785 269.132 189.628 269.992 183.81 269.992ZM226.164 269C225.503 269 224.908 268.769 224.379 268.306C223.917 267.777 223.685 267.182 223.685 266.521V202.06C223.685 201.333 223.917 200.738 224.379 200.275C224.908 199.812 225.503 199.581 226.164 199.581H239.453C240.18 199.581 240.775 199.812 241.238 200.275C241.767 200.738 242.032 201.333 242.032 202.06V266.521C242.032 267.248 241.767 267.843 241.238 268.306C240.775 268.769 240.18 269 239.453 269H226.164ZM284.3 269.992C274.846 269.992 267.441 267.711 262.086 263.149C256.797 258.521 253.987 251.844 253.656 243.117C253.59 241.332 253.557 238.423 253.557 234.39C253.557 230.291 253.59 227.315 253.656 225.464C253.987 216.87 256.863 210.258 262.284 205.63C267.705 200.936 275.044 198.589 284.3 198.589C290.118 198.589 295.341 199.581 299.969 201.564C304.597 203.482 308.233 206.258 310.877 209.895C313.588 213.465 314.976 217.663 315.043 222.489V222.688C315.043 223.216 314.811 223.679 314.348 224.076C313.952 224.406 313.489 224.572 312.96 224.572H299.572C298.713 224.572 298.051 224.406 297.589 224.076C297.126 223.679 296.729 222.985 296.399 221.993C295.473 218.622 294.019 216.275 292.035 214.952C290.052 213.564 287.44 212.87 284.201 212.87C276.399 212.87 272.366 217.233 272.102 225.96C272.036 227.745 272.003 230.489 272.003 234.191C272.003 237.894 272.036 240.703 272.102 242.621C272.366 251.348 276.399 255.711 284.201 255.711C287.44 255.711 290.085 255.017 292.134 253.629C294.184 252.174 295.605 249.827 296.399 246.588C296.663 245.596 297.027 244.935 297.489 244.604C297.952 244.207 298.646 244.009 299.572 244.009H312.96C313.555 244.009 314.051 244.207 314.448 244.604C314.91 245.001 315.109 245.497 315.043 246.092C314.976 250.918 313.588 255.149 310.877 258.785C308.233 262.356 304.597 265.132 299.969 267.116C295.341 269.033 290.118 269.992 284.3 269.992Z" fill="white"/>
</svg>
