<svg width="222" height="61" viewBox="0 0 222 61" fill="none" xmlns="http://www.w3.org/2000/svg">
<g clip-path="url(#clip0_2203_2)">
<path d="M15.2423 43.073C17.1145 42.9267 18.3298 41.7088 18.8391 39.3224L25.0197 12.6787C25.5876 10.2923 24.9724 9.2188 23.0548 9.0687L23.1949 8.5329H31.9917L31.8516 9.0687C29.9339 9.1162 28.8568 9.94461 28.2548 12.6787L22.0723 39.3718C21.5044 41.7088 22.3997 42.9267 24.0372 43.073L23.8971 43.6088H15.1023L15.2423 43.073Z" fill="#040506"/>
<path d="M48.173 43.073C50.0451 42.9267 51.2604 41.7088 51.7696 39.3224L57.9503 12.6787C58.5183 10.2923 57.903 9.2188 55.9853 9.0687L56.1274 8.5329H64.9298L64.7897 9.0687C62.8722 9.1162 61.7969 9.94461 61.1931 12.6787L55.0029 39.3718C54.435 41.7088 55.3304 42.9267 56.9678 43.073L56.8278 43.6088H48.0329L48.173 43.073Z" fill="#040506"/>
<path d="M54.1094 1.87557C53.5623 2.98517 52.913 3.40507 52.2392 3.40507C51.1033 3.40507 50.95 2.84647 49.3996 1.91167C47.5425 0.802074 45.4603 -0.0510252 43.272 0.00027481C41.7793 0.0310109 40.3209 0.454936 39.043 1.22957C37.6347 2.07599 36.5133 3.32872 35.8249 4.82437C35.0317 6.57047 34.9541 8.40967 35.274 10.2774C35.664 12.5573 36.4874 14.6929 37.3336 16.8247C38.5754 19.9445 39.8835 23.0396 41.0477 26.1898C42.2252 29.3742 42.8914 32.6669 42.6549 36.1021C42.5034 38.2966 42.1911 40.4607 41.5077 42.5621C39.5333 48.625 35.6072 52.7043 29.6063 54.9368C24.8265 56.7133 20.3894 56.8938 15.5149 55.4099C9.68057 53.6353 5.89267 50.0082 4.05456 44.1581C3.10805 41.1637 3.10805 38.1104 3.68732 35.0533C4.41802 31.1602 5.99678 27.6851 8.84576 24.875C10.5097 23.2315 12.4425 22.0801 14.6951 21.5538L14.8182 21.1339C14.574 21.1795 14.3317 21.2327 14.0932 21.2973C9.79982 22.4696 6.22962 24.78 3.53397 28.3273C-0.0986998 33.1001 -0.888083 38.4182 0.970848 44.0802C2.31109 48.169 5.0446 51.1938 8.66024 53.432C11.5869 55.2408 14.7879 56.2706 18.1859 56.7247C21.0045 57.1047 23.3576 57.1275 26.1459 56.5461C33.6915 54.9691 39.522 50.9297 43.4007 44.1961C45.0916 41.2487 46.0288 37.9268 46.1285 34.527C46.2194 32.1463 45.765 29.8511 45.1215 27.5825C44.1977 24.3335 42.8857 21.227 41.6175 18.1053C40.5214 15.413 39.4405 12.7112 38.4277 9.98477C37.8599 8.43437 37.4509 6.82507 37.6384 5.13407C37.7766 3.90287 38.2499 2.83697 39.1925 2.01617C40.6766 0.724174 42.8876 0.484774 44.7693 0.762174C46.5702 1.03812 48.1966 1.99786 49.3126 3.44307C49.5713 3.77592 49.8048 4.12778 50.0111 4.49567C51.2321 6.66547 51.6163 9.36537 51.0712 12.5858L51.6069 12.6542L54.4634 1.92117L54.1094 1.87557Z" fill="#040506"/>
</g>
<path d="M163.349 8.5386L163.207 9.0744C161.156 9.1219 159.851 10.2429 159.479 13.1651L155.749 39.1761C155.423 41.6613 156.076 42.9761 157.753 43.073L157.613 43.6088H148.895L149.035 43.073C150.759 43.0255 152.112 41.7088 152.431 39.3718L156.634 11.6071L149.361 25.3916C148.663 26.8052 147.869 28.2663 147.077 29.7768L145.166 33.3868L142.649 38.3059C141.483 40.5859 141.017 41.9159 141.017 43.0787C139.945 43.4184 138.913 43.8759 137.94 44.4429L134.627 11.2651L127.635 38.5928C126.703 41.515 127.869 42.9267 130.525 43.073L130.386 43.6088H121.528L121.668 43.073C124.139 43.0255 125.818 41.515 126.75 38.6403L133.274 13.2639C134.159 10.5355 133.369 9.1219 130.805 9.0744L130.897 8.5386H137.657L140.97 39.957L145.166 32.0644L148.841 25.0515C153.091 16.9651 155.515 12.1429 156.121 10.64C156.397 9.96301 156.616 9.26389 156.776 8.55L163.349 8.5386Z" fill="#040506"/>
<path d="M189.663 18.5535H189.097C188.909 16.3609 188.369 12.7756 187.856 11.8503C187.343 10.8756 186.458 10.1935 185.15 9.7603C183.902 9.31 181.857 9.12 179.006 9.12H173.556L170.334 23.199H176.627C179.798 23.199 181.196 21.983 181.896 19.399H182.462L180.497 27.778H179.983C180.549 24.7095 179.751 23.788 176.44 23.788H170.193L165.998 42.0546C167.443 42.6873 169.394 43.0293 171.872 43.0293C175.229 43.0293 178.082 42.4441 179.985 41.3193C181.888 40.1945 184.766 36.3793 186.589 32.9783H187.194L181.345 44.1883C179.993 43.7995 178.128 43.6043 175.75 43.6031H159.749L159.891 43.0673C161.802 42.921 162.874 41.9482 163.434 39.4155L169.594 12.6293C170.16 10.0966 169.547 9.2188 167.683 9.0744L167.822 8.5386H182.46C185.305 8.5386 187.496 8.1966 188.941 7.5639L189.663 18.5535Z" fill="#040506"/>
<path d="M222 8.53859L221.905 9.07439C219.294 9.12189 217.944 10.3892 217.012 14.2861L211.417 37.8613C211.002 39.4301 211.034 41.0846 211.508 42.636C210.434 43.172 209.432 43.8431 208.526 44.6329L196.668 12.7756L191.601 37.6656C190.808 41.1236 191.789 42.9248 194.539 43.1205L194.446 43.6069H184.981L185.073 43.1205C187.965 42.9742 189.832 41.1236 190.669 37.6656L195.594 14.82C196.482 11.0694 195.503 9.16939 192.75 9.07249L192.891 8.53669H198.719L210.39 39.52L216.217 14.288C217.012 10.6343 216.173 9.22069 213.327 9.07629L213.421 8.54049L222 8.53859Z" fill="#040506"/>
<path d="M99.6115 8.5386L99.47 9.0744C97.4192 9.1219 96.1137 10.2429 95.742 13.1651L92.0103 39.1761C91.6858 41.6613 92.3385 42.9761 94.0158 43.073L93.8762 43.6088H85.1581L85.2977 43.073C87.0221 43.0255 88.3749 41.7088 88.6936 39.3718L92.897 11.6071L85.6242 25.3916C84.9242 26.8052 84.1318 28.2663 83.3395 29.7768L81.4284 33.3868L78.9116 38.3059C77.7456 40.5859 77.2796 41.9159 77.2796 43.0787C76.2073 43.4184 75.1755 43.8759 74.2026 44.4429L70.8897 11.2651L63.8979 38.5928C62.9659 41.515 64.1319 42.9267 66.7882 43.073L66.6486 43.6088H57.791L57.9306 43.073C60.402 43.0255 62.0811 41.515 63.0112 38.6403L69.537 13.2639C70.4219 10.5355 69.6313 9.1219 67.0656 9.0744L67.1599 8.5386H73.9196L77.2325 39.957L81.4284 32.0644L85.111 25.0515C89.3539 16.9651 91.7782 12.1429 92.3839 10.64C92.6602 9.96332 92.8786 9.26412 93.0367 8.55L99.6115 8.5386Z" fill="#040506"/>
<path d="M125.926 18.5535H125.36C125.172 16.3609 124.632 12.7756 124.119 11.8503C123.606 10.8756 122.719 10.1935 121.413 9.76029C120.165 9.30999 118.112 9.11999 115.269 9.11999H109.813L106.605 23.1971H112.899C116.071 23.1971 117.469 21.9811 118.169 19.3971H118.734L116.769 27.778H116.256C116.821 24.7095 116.023 23.788 112.712 23.788H106.456L102.261 42.0508C103.706 42.6835 105.656 43.0255 108.136 43.0255C111.492 43.0255 114.344 42.4403 116.248 41.3155C118.152 40.1907 121.029 36.3755 122.851 32.9745H123.457L117.608 44.1845C116.257 43.7957 114.393 43.6005 112.014 43.5993H96.0159L96.1574 43.0635C98.0685 42.9172 99.1401 41.9444 99.7004 39.4117L105.855 12.6217C106.421 10.089 105.807 9.2112 103.942 9.0668L104.083 8.531H118.721C121.566 8.531 123.757 8.18899 125.202 7.55629L125.926 18.5535Z" fill="#040506"/>
<defs>
<clipPath id="clip0_2203_2">
<rect width="66" height="57" fill="white"/>
</clipPath>
</defs>
</svg>
