<svg width="73" height="72" viewBox="0 0 73 72" fill="none" xmlns="http://www.w3.org/2000/svg">
<path fill-rule="evenodd" clip-rule="evenodd" d="M36.5103 62.8772C21.5493 62.8772 9.42034 50.7482 9.42034 35.7862C9.42034 20.8252 21.5493 8.69624 36.5103 8.69624C51.4713 8.69624 63.5993 20.8252 63.5993 35.7862C63.5993 50.7482 51.4713 62.8772 36.5103 62.8772ZM36.5103 0.0942383C16.7983 0.0942383 0.819336 16.0742 0.819336 35.7862C0.819336 55.4992 16.7983 71.4792 36.5103 71.4792C56.2213 71.4792 72.2003 55.4992 72.2003 35.7862C72.2003 16.0742 56.2213 0.0942383 36.5103 0.0942383Z" fill="#2699BC"/>
<path fill-rule="evenodd" clip-rule="evenodd" d="M1.86941 27.166C1.36841 29.185 1.04041 31.271 0.899414 33.409C1.37341 40.537 3.93841 47.093 7.98841 52.467L12.4534 48.252C10.5154 44.52 9.42041 40.282 9.42041 35.787C9.42041 32.773 9.91341 29.874 10.8214 27.166H1.86941Z" fill="#2699BC"/>
<path fill-rule="evenodd" clip-rule="evenodd" d="M65.0314 52.467C69.0814 47.092 71.6464 40.537 72.1204 33.408C71.9794 31.27 71.6514 29.184 71.1504 27.165H62.1984C63.1064 29.873 63.5994 32.772 63.5994 35.786C63.5994 40.281 62.5044 44.52 60.5664 48.251L65.0314 52.467Z" fill="#2699BC"/>
<path fill-rule="evenodd" clip-rule="evenodd" d="M0.819336 35.7868C0.819336 43.8418 3.48834 51.2728 7.98934 57.2458L26.6483 39.6288V31.9448H1.02634C0.890336 33.2068 0.819336 34.4888 0.819336 35.7868ZM71.9953 31.9448H46.3733V39.6288L65.0313 57.2458C69.5323 51.2728 72.2013 43.8418 72.2013 35.7868C72.2013 34.4888 72.1303 33.2068 71.9953 31.9448Z" fill="#2699BC"/>
<path fill-rule="evenodd" clip-rule="evenodd" d="M46.373 39.6288L50.123 43.1688C51.315 40.9748 51.992 38.4598 51.992 35.7858C51.992 34.4598 51.825 33.1728 51.512 31.9438H46.373V39.6288Z" fill="#2699BC"/>
<path fill-rule="evenodd" clip-rule="evenodd" d="M21.0283 35.7868C21.0283 38.4598 21.7063 40.9748 22.8983 43.1698L26.6483 39.6288V31.9448H22.9843H21.5083C21.1953 33.1728 21.0283 34.4608 21.0283 35.7868Z" fill="#2699BC"/>
<path fill-rule="evenodd" clip-rule="evenodd" d="M36.5107 25.2041C42.3547 25.2041 47.0917 29.9421 47.0917 35.7871C47.0917 41.6311 42.3547 46.3691 36.5107 46.3691C30.6657 46.3691 25.9287 41.6311 25.9287 35.7871C25.9287 29.9421 30.6657 25.2041 36.5107 25.2041Z" fill="#2699BC"/>
<path fill-rule="evenodd" clip-rule="evenodd" d="M36.5108 31.2842C38.9968 31.2842 41.0128 33.3002 41.0128 35.7862C41.0128 38.2732 38.9968 40.2882 36.5108 40.2882C34.0248 40.2882 32.0088 38.2732 32.0088 35.7862C32.0088 33.3002 34.0248 31.2842 36.5108 31.2842Z" fill="#2699BC"/>
</svg>
